Coordinates
version=1
nRows=22
nColumns=24
inDegrees=yes

Units are S.I. units (second, meters, Newtons, ...)
Angles are in degrees.

endheader
time	pelvis_tilt	pelvis_list	pelvis_rotation	pelvis_tx	pelvis_ty	pelvis_tz	hip_flexion_r	hip_adduction_r	hip_rotation_r	knee_angle_r	ankle_angle_r	subtalar_angle_r	mtp_angle_r	hip_flexion_l	hip_adduction_l	hip_rotation_l	knee_angle_l	ankle_angle_l	subtalar_angle_l	mtp_angle_l	lumbar_extension	lumbar_bending	lumbar_rotation
      3.43000000	    -14.57856713	     -9.85974984	      7.02557312	      1.47161871	     -0.02360371	     -0.42966904	     30.15856658	      8.93005828	     -9.64832171	    -17.87957345	     -5.77812568	     -3.78707670	      8.83553627	     15.70836877	    -17.05533220	     -7.56576951	    -58.22087855	    -32.93836523	     13.08667446	     20.75783258	     15.62127193	     10.42035851	     -8.98075172
      3.43500000	    -14.52965719	     -9.73683478	      6.78463890	      1.47756197	     -0.02254702	     -0.42895826	     29.50004070	      9.06464339	     -9.37364543	    -17.49541229	     -5.58616794	     -3.60690688	      8.88798074	     16.34879664	    -16.89992254	     -7.40999760	    -58.97688139	    -31.88257522	     12.60865943	     21.20223346	     15.51384963	     10.33891020	     -8.72614528
      3.44000000	    -14.48928929	     -9.60011556	      6.49443165	      1.48354593	     -0.02147754	     -0.42825488	     28.83155991	      9.20058728	     -9.06651099	    -17.08471461	     -5.44159813	     -3.42689558	      8.93236983	     16.96052658	    -16.73468276	     -7.33919700	    -59.66143745	    -30.88971120	     12.07194800	     21.54773972	     15.41857335	     10.26661208	     -8.39314879
      3.44500000	    -14.44240220	     -9.42765785	      6.18774420	      1.48947472	     -0.02042840	     -0.42747193	     28.15475528	      9.31519117	     -8.67200343	    -16.68083031	     -5.29104101	     -3.31758013	      8.95294115	     17.54792126	    -16.53561431	     -7.28913626	    -60.28522441	    -29.94804205	     11.63435718	     21.86326991	     15.30198569	     10.15415231	     -8.04152165
      3.45000000	    -14.39895614	     -9.26566143	      5.92134469	      1.49535077	     -0.01943359	     -0.42672083	     27.48617011	      9.41444525	     -8.30385202	    -16.27623704	     -5.12411128	     -3.21276637	      8.96247190	     18.16250156	    -16.33238172	     -7.18607922	    -60.86716951	    -29.05837901	     11.31160460	     22.21032814	     15.19726516	     10.03417624	     -7.77350172
      3.45500000	    -14.34084248	     -9.04893891	      5.53330304	      1.50127013	     -0.01838976	     -0.42580285	     26.77625381	      9.53088247	     -7.73670492	    -15.85031588	     -5.02794640	     -3.27287261	      8.85511128	     18.67208843	    -16.11513016	     -7.24468452	    -61.35413708	    -28.19675298	     11.05716589	     22.45258722	     15.05445660	      9.89812236	     -7.29719426
      3.46000000	    -14.28588966	     -8.84597382	      5.18760242	      1.50716009	     -0.01739338	     -0.42492790	     26.06955382	      9.63161884	     -7.19662919	    -15.41800656	     -4.91294079	     -3.32514647	      8.70368305	     19.20559786	    -15.89680674	     -7.25011882	    -61.79758545	    -27.35914629	     10.91006592	     22.71347014	     14.92867971	      9.75569664	     -6.92161437
      3.46500000	    -14.22018031	     -8.65407757	      4.84040235	      1.51304732	     -0.01641784	     -0.42403981	     25.34276362	      9.74350157	     -6.62465346	    -14.97100602	     -4.79931183	     -3.42671353	      8.41822747	     19.72287380	    -15.69826323	     -7.27531359	    -62.19104888	    -26.53628281	     10.80414133	     22.93640296	     14.79898101	      9.62318666	     -6.56013114
      3.47000000	    -14.19092525	     -8.40700681	      4.47379598	      1.51885615	     -0.01550067	     -0.42314362	     24.66941666	      9.77988986	     -6.08936608	    -14.55723503	     -4.65333665	     -3.42161255	      8.28137005	     20.25937386	    -15.43158477	     -7.31167289	    -62.51559117	    -25.75403034	     10.80938160	     23.22664700	     14.69308231	      9.43614792	     -6.14568603
      3.47500000	    -14.12536131	     -8.18613533	      4.08162977	      1.52467899	     -0.01456216	     -0.42220032	     23.93595301	      9.86203543	     -5.45753684	    -14.09988250	     -4.57561261	     -3.55110933	      8.00369022	     20.73821018	    -15.21964737	     -7.40503795	    -62.78476099	    -24.95335409	     10.82737239	     23.46972797	     14.55457499	      9.28417434	     -5.74518114
      3.48000000	    -14.11232925	     -7.90611290	      3.71955586	      1.53050960	     -0.01368850	     -0.42130892	     23.26345212	      9.83818891	     -4.95268119	    -13.65891883	     -4.43429921	     -3.52768393	      7.89411722	     21.26243362	    -14.91409347	     -7.46297761	    -62.97453068	    -24.19048549	     10.93363832	     23.77723866	     14.48564063	      9.05180888	     -5.36599067
      3.48500000	    -14.02351980	     -7.67793053	      3.29922390	      1.53625866	     -0.01279657	     -0.42031592	     22.49902587	      9.90587757	     -4.28171035	    -13.18551180	     -4.36586234	     -3.68298610	      7.61395528	     21.69311134	    -14.71773782	     -7.61280493	    -63.13335904	    -23.40045406	     11.03349060	     24.02964189	     14.31698546	      8.89944283	     -4.91483249
      3.49000000	    -14.01691285	     -7.37830182	      2.93396762	      1.54198880	     -0.01198914	     -0.41941560	     21.84004704	      9.83562791	     -3.81246950	    -12.74225697	     -4.22550724	     -3.61829759	      7.53925635	     22.21219772	    -14.39527873	     -7.69374774	    -63.21266163	    -22.64523731	     11.20127918	     24.34336067	     14.25168913	      8.64313547	     -4.53120063
      3.49500000	    -13.94300207	     -7.11560698	      2.50428690	      1.54763003	     -0.01117003	     -0.41843342	     21.10202138	      9.83112527	     -3.20387902	    -12.27456253	     -4.14387355	     -3.65118727	      7.41069140	     22.64129221	    -14.16072866	     -7.86003610	    -63.25618027	    -21.87165211	     11.37165285	     24.61088840	     14.09296479	      8.45627755	     -4.05024694
      3.50000000	    -13.92192343	     -6.81231866	      2.12465831	      1.55335264	     -0.01041481	     -0.41749201	     20.41679334	      9.74418883	     -2.73974177	    -11.80008730	     -4.02711381	     -3.60463168	      7.36238560	     23.11600608	    -13.85757647	     -7.99970041	    -63.22050701	    -21.10769341	     11.53699401	     24.87726661	     14.02445477	      8.19291189	     -3.68023984
      3.50500000	    -13.81728091	     -6.55105583	      1.68977791	      1.55899055	     -0.00962142	     -0.41648836	     19.63245509	      9.72023692	     -2.15285426	    -11.29496496	     -3.98002410	     -3.64492634	      7.28573895	     23.48552961	    -13.64208524	     -8.21151006	    -63.15189892	    -20.31904445	     11.67663249	     25.04867526	     13.84564384	      8.00273671	     -3.21090869
      3.51000000	    -13.78398815	     -6.24823679	      1.29606414	      1.56455385	     -0.00892717	     -0.41555330	     18.95113796	      9.60974812	     -1.69355093	    -10.82257855	     -3.89133333	     -3.55584560	      7.29067563	     23.94198691	    -13.34492609	     -8.36499615	    -63.02651391	    -19.55068478	     11.81905890	     25.23484797	     13.74685683	      7.74955044	     -2.79381363
      3.51500000	    -13.75387273	     -5.93937910	      0.91037047	      1.57018089	     -0.00829677	     -0.41459934	     18.26680264	      9.48241144	     -1.26303276	    -10.34058083	     -3.76787237	     -3.47630481	      7.32520278	     24.38889329	    -13.05590126	     -8.55192404	    -62.85027996	    -18.79224788	     11.91708224	     25.37788216	     13.67760833	      7.47548640	     -2.40943315
      3.52000000	    -13.63860941	     -5.66741383	      0.47784799	      1.57573970	     -0.00760416	     -0.41360931	     17.47872713	      9.40319177	     -0.73431521	     -9.82008245	     -3.74087429	     -3.47062970	      7.37870631	     24.72435314	    -12.83727746	     -8.79805557	    -62.63970898	    -17.99200455	     11.95573517	     25.35384219	     13.49637783	      7.26664991	     -1.94899412
      3.52500000	    -13.58512811	     -5.37017848	      0.08219097	      1.58125622	     -0.00701991	     -0.41266400	     16.78169385	      9.26781184	     -0.29064402	     -9.33281069	     -3.66708607	     -3.40898790	      7.44275330	     25.13502449	    -12.56985754	     -9.00473697	    -62.37959352	    -17.22376554	     11.96383246	     25.34307126	     13.39047287	      7.01103161	     -1.52885083
      3.53000000	    -13.52702825	     -5.06812946	     -0.31115460	      1.58674292	     -0.00647125	     -0.41172929	     16.08965242	      9.11661297	      0.14962628	     -8.85498260	     -3.60195309	     -3.36477399	      7.49796392	     25.53194060	    -12.29898042	     -9.22257861	    -62.07369112	    -16.45893827	     11.90116897	     25.27679881	     13.27949602	      6.74876477	     -1.12203367
      3.53500000	    -13.43125057	     -4.79206973	     -0.70041825	      1.59227092	     -0.00595363	     -0.41078201	     15.34509289	      8.98615763	      0.62304245	     -8.35430149	     -3.53984867	     -3.38759208	      7.55288633	     25.88008772	    -12.07325197	     -9.46739261	    -61.73844843	    -15.68936575	     11.79044865	     25.09199390	     13.14487898	      6.50672359	     -0.75055206
